<svg fill="none" height="167" viewBox="0 0 613 167" width="613" xmlns="http://www.w3.org/2000/svg" xmlns:xlink="http://www.w3.org/1999/xlink"><clipPath id="a"><path d="m0 0h613v166.09h-613z"/></clipPath><clipPath id="b"><path d="m448.79 1.57886h164.21v164.21h-164.21z"/></clipPath><g clip-path="url(#a)"><g fill="#fff"><path d="m88.4825 120.9c0-5.699-2.0354-10.14-6.1061-13.322-3.9967-3.183-11.0649-6.476-21.2047-9.8809-10.1398-3.4046-18.4292-6.6982-24.8683-9.8807-20.9457-10.2878-31.41854-24.4243-31.41854-42.4094 0-8.9556 2.59045-16.838 7.77134-23.6472 5.2549-6.8832 12.6562-12.21213 22.2039-15.98679 9.5477-3.84867 20.2796-5.77301 32.1956-5.77301 11.6201 0 22.0189 2.07236 31.1965 6.21709 9.2518 4.14471 16.4308 10.06581 21.5378 17.76311 5.107 7.6233 7.66 16.3569 7.66 26.2006h-38.8565c0-6.5872-2.0353-11.6941-6.1061-15.3207-3.9967-3.6266-9.4366-5.4399-16.3198-5.4399-6.9572 0-12.4712 1.5542-16.5419 4.6628-3.9967 3.0345-5.9951 6.9202-5.9951 11.657 0 4.1447 2.2204 7.9194 6.6612 11.324 4.4408 3.3306 12.2492 6.8092 23.4251 10.4358 11.176 3.5526 20.3536 7.4013 27.5331 11.546 17.467 10.0658 26.2 23.9432 26.2 41.6322 0 14.137-5.329 25.239-15.986 33.306-10.658 8.067-25.2759 12.101-43.8532 12.101-13.1003 0-24.9793-2.331-35.6372-6.994-10.5839-4.737-18.5773-11.176-23.9802-19.318-5.32893-8.215-7.9934-17.652-7.9934-28.309h39.0788c0 8.659 2.2204 15.061 6.6612 19.206 4.5148 4.071 11.8051 6.106 21.8708 6.106 6.4392 0 11.5091-1.369 15.2097-4.108 3.7747-2.812 5.662-6.735 5.662-11.768z"/><path d="m206.607 72.3847 29.753-70.16431h42.077l-52.068 103.58161v58.063h-39.523v-58.063l-51.957-103.58161h41.854z"/><path d="m290.205 163.865v-161.64461h52.068c14.284 0 27.126 3.25657 38.524 9.76971 11.398 6.4391 20.279 15.5797 26.644 27.4218 6.439 11.7681 9.696 24.9794 9.77 39.6339v7.4383c0 14.8029-3.145 28.0879-9.437 39.8559-6.217 11.694-15.024 20.872-26.422 27.533-11.324 6.587-23.98 9.918-37.969 9.992zm38.968-131.5583v101.5823h13.544c11.176 0 19.761-3.959 25.757-11.879 5.995-7.993 8.992-19.835 8.992-35.5259v-6.9942c0-15.6167-2.997-27.3848-8.992-35.3042-5.996-7.9193-14.729-11.879-26.201-11.879z"/></g><g clip-path="url(#b)"><path d="m613 83.6847c.03 14.2157-3.66 28.1933-10.702 40.5423-.962 1.699-1.982 3.369-3.086 5.011-1.191 1.822-2.477 3.58-3.851 5.266-1.245 1.614-2.604 3.2-3.991 4.728-1.67 1.813-3.426 3.539-5.238 5.209-1.67 1.53-3.426 3.002-5.237 4.361-1.303 1.048-2.662 2.01-4.02 2.944-2.124 1.416-4.276 2.747-6.513 3.992h-.056c-3.773 2.058-7.702 3.82-11.75 5.267-2.986 1.087-6.041 1.977-9.144 2.661-3.272.775-6.591 1.324-9.938 1.642-.205.041-.413.07-.622.084-2.634.256-5.267.397-7.957.397-45.344 0-82.105-36.76-82.105-82.1043.002-8.2824 1.242-16.5184 3.681-24.4337 1.093-3.4503 2.408-6.8266 3.935-10.1077 1.321-2.8427 2.795-5.6127 4.418-8.2949l.056-.0852c2.375-3.8737 5.074-7.5395 8.069-10.9559 1.645-1.9331 3.404-3.7672 5.266-5.4936l.056-.0564c2.595-2.5282 5.378-4.8559 8.324-6.9644 1.812-1.3305 3.681-2.5758 5.578-3.766 1.982-1.1889 4.02-2.2926 6.087-3.3124 1.832-.9559 3.712-1.81533 5.634-2.57579h.028c1.898-.79304 3.822-1.50088 5.804-2.12353 1.84-.59508 3.737-1.13254 5.634-1.58606 24.491-5.98721 50.374-.39589 70.209 15.16788 19.834 15.5637 31.423 39.376 31.431 64.5877z" fill="#c03a2b"/><g fill="#e6e7e8"><path d="m586.132 144.441c-1.67 1.53-3.425 3.002-5.237 4.361-57.128-7.461-99.818-56.2009-99.686-113.8142-.013-5.9258.451-11.8428 1.386-17.6947 1.812-1.3305 3.681-2.5758 5.578-3.766.411.5951.564 1.3305.425 2.0383-5.365 29.8146 1.89 60.5161 20.035 84.7746 18.143 24.257 45.545 39.891 75.659 43.168.705.08 1.359.412 1.84.933z"/><path d="m595.361 134.504c-1.245 1.614-2.604 3.2-3.991 4.728-1.302-.198-2.576-.396-3.85-.622-.741-.132-1.398-.552-1.828-1.167-.43-.616-.598-1.378-.466-2.117.03-.165.078-.327.141-.482.458-1.297 1.792-2.066 3.144-1.812 1.783.34 3.567.595 5.378.849.544.053 1.058.27 1.472.623z"/><path d="m517.663 86.8872c-.878-1.2942-2.639-1.6312-3.933-.753-1.294.877-1.631 2.6385-.753 3.9326 2.124 3.1283 4.436 6.194 6.868 9.1068.639.8081 1.665 1.2054 2.681 1.0384 1.015-.166 1.861-.8718 2.206-1.8415.348-.9697.14-2.0508-.541-2.8226-2.312-2.7725-4.51-5.6853-6.528-8.6607z"/><path d="m502.108 70.0441c1.463 3.4878 3.114 6.9469 4.935 10.2831.482.8883 1.403 1.4533 2.414 1.4796s1.959-.4886 2.488-1.3505c.529-.862.558-1.9419.075-2.8302-1.725-3.1771-3.29-6.4382-4.688-9.7707-.605-1.442-2.264-2.1223-3.707-1.5172-1.442.6039-2.121 2.2626-1.517 3.7059z"/><path d="m496.576 39.5182h.283c.748-.0714 1.437-.4372 1.915-1.0173.478-.58.706-1.3267.633-2.0746-.346-3.5443-.519-7.1587-.521-10.8407-.001-.7455-.302-1.4596-.835-1.982-.531-.5237-1.25-.8118-1.995-.8005-1.574.0225-2.835 1.3066-2.832 2.8789 0 3.766.185 7.5684.549 11.2943.148 1.4382 1.357 2.5344 2.803 2.5419z"/><path d="m495.436 48.2529c.742 3.7334 1.673 7.4267 2.788 11.0661.365 1.1902 1.462 2.0021 2.706 2.0021.281-.0013.56-.0426.83-.1241.719-.2205 1.32-.7153 1.672-1.3793.354-.6628.428-1.4395.208-2.1574-1.06-3.4578-1.944-6.9682-2.651-10.5149-.305-1.5335-1.796-2.5295-3.33-2.2238s-2.529 1.7966-2.223 3.3313z"/><path d="m544.517 117.922c-.411.629-.555 1.395-.4 2.13.154.735.594 1.378 1.223 1.789 3.18 2.072 6.495 4.011 9.856 5.753 1.383.687 3.063.14 3.775-1.231.711-1.372.191-3.06-1.168-3.795-3.193-1.656-6.344-3.494-9.354-5.476-.631-.414-1.4-.56-2.139-.403-.738.155-1.385.599-1.793 1.233z"/><path d="m527.546 103.557c-1.095 1.115-1.078 2.908.037 4.002 2.698 2.654 5.566 5.205 8.525 7.583 1.219.984 3.004.794 3.989-.425s.794-3.004-.425-3.989c-2.813-2.265-5.541-4.688-8.108-7.209-.536-.53-1.263-.824-2.017-.817s-1.475.315-2.001.855z"/><path d="m563.994 128.663c-.278.698-.268 1.479.029 2.169s.856 1.234 1.555 1.512c3.538 1.407 7.145 2.635 10.807 3.681.252.074.515.11.778.11 1.414.003 2.613-1.039 2.809-2.438.196-1.401-.671-2.731-2.03-3.117-3.46-.988-6.917-2.166-10.269-3.499-1.452-.579-3.1.13-3.679 1.582z"/><path d="m500.121 9.19618c-.283 1.81162-.51 3.65202-.708 5.46352-.132 1.4483-1.349 2.5545-2.804 2.5483h-.283c-1.556-.1692-2.689-1.5548-2.547-3.1145.142-1.3017.283-2.6047.481-3.8788 1.832-.95588 3.713-1.81532 5.634-2.57578h.028c.208.4911.277 1.02982.199 1.55726z"/><path d="m460.88 40.7634c.949.5387 1.5 1.5748 1.416 2.6623-.142 1.8116-.227 3.652-.254 5.4923-.041 1.5373-1.295 2.765-2.832 2.7738h-.057c-1.426-.0351-2.604-1.1275-2.747-2.5482z"/><path d="m471.137 94.7484c-1.575-3.5956-2.954-7.2751-4.131-11.0211-.303-.9659-1.098-1.6963-2.086-1.9155-.988-.2205-2.018.1027-2.702.8494-.685.7454-.919 1.799-.616 2.7649 1.24 3.9439 2.692 7.8189 4.348 11.6074.385.9585 1.259 1.6312 2.284 1.7578 1.025.1252 2.036-.317 2.641-1.1539.604-.8369.704-1.9356.262-2.869z"/><path d="m464.096 72.3231c-.761-3.8499-1.315-7.7387-1.659-11.6475-.071-1.021-.687-1.9243-1.613-2.3628-.925-.4373-2.015-.342-2.849.2505-.836.5926-1.285 1.5899-1.178 2.6072.361 4.113.942 8.2022 1.744 12.2513.196.9935.906 1.8079 1.864 2.1349.959.3269 2.019.1177 2.78-.55.762-.6678 1.109-1.6901.911-2.6836z"/><path d="m517.748 146.189c-3.42-1.926-6.734-4.032-9.93-6.308-.823-.588-1.897-.692-2.817-.273-.921.42-1.549 1.298-1.645 2.305-.098 1.007.349 1.99 1.172 2.577 3.36 2.396 6.846 4.609 10.442 6.634 1.362.767 3.089.283 3.857-1.079.766-1.363.283-3.089-1.079-3.856z"/><path d="m490.263 124.261c-1.062-1.107-2.811-1.169-3.947-.139-1.136 1.031-1.245 2.778-.247 3.942 2.769 3.056 5.698 5.964 8.778 8.708 1.167 1.04 2.957.936 3.996-.232 1.04-1.168.936-2.958-.232-3.998-2.928-2.609-5.715-5.374-8.348-8.281z"/><path d="m539.333 155.407c-3.751-1.141-7.437-2.484-11.043-4.023-1.434-.599-3.083.07-3.693 1.5-.611 1.429.044 3.083 1.468 3.706 3.795 1.625 7.675 3.043 11.623 4.247.267.08.545.121.823.121 1.403 0 2.595-1.027 2.801-2.415s-.636-2.718-1.979-3.125z"/><path d="m476.438 105.256c-.782-1.356-2.515-1.822-3.87-1.04-1.356.782-1.822 2.514-1.04 3.871 2.057 3.579 4.305 7.046 6.733 10.385.533.733 1.386 1.167 2.293 1.166 1.065-.001 2.039-.6 2.521-1.55.482-.949.391-2.088-.237-2.949-2.309-3.178-4.445-6.477-6.4-9.883z"/><path d="m558.556 161.005c-2.985 1.087-6.041 1.977-9.144 2.661-1.411-.465-2.219-1.946-1.844-3.383.374-1.437 1.801-2.336 3.259-2.053 1.812.339 3.624.623 5.436.877 1.069.132 1.964.872 2.293 1.898z"/><path d="m474.272 24.2576c.615.6276.899 1.5096.764 2.3791-.254 1.8116-.452 3.6231-.623 5.4924-.131 1.4633-1.362 2.582-2.831 2.5758-.085.005-.172-.0051-.254-.0276-.745-.0651-1.434-.4247-1.911-.9985-.479-.5738-.708-1.3155-.638-2.0596.057-.6227.113-1.2178.171-1.8116z"/><path d="m534.796 145.807c.92.439 2.005.35 2.839-.234.836-.583 1.294-1.569 1.201-2.584-.096-1.013-.727-1.899-1.655-2.319-3.363-1.562-6.644-3.296-9.83-5.195-1.344-.801-3.082-.36-3.883.985-.8 1.343-.36 3.082.984 3.882 3.354 1.996 6.806 3.819 10.344 5.465z"/><path d="m509.512 122.225c-.747-.683-1.802-.914-2.765-.61-.965.306-1.694 1.101-1.912 2.09-.218.987.108 2.017.855 2.7 2.881 2.633 5.894 5.119 9.029 7.445.485.367 1.076.566 1.684.566 1.219 0 2.3-.779 2.686-1.935.385-1.157-.013-2.429-.988-3.161-2.98-2.219-5.848-4.587-8.589-7.095z"/><path d="m558.176 147.913c-3.61-.843-7.175-1.869-10.681-3.075-.962-.353-2.04-.159-2.818.508-.778.665-1.135 1.7-.934 2.705.2 1.004.928 1.822 1.903 2.138 3.689 1.272 7.443 2.354 11.242 3.241 1.506.316 2.987-.629 3.338-2.126.35-1.498-.56-3-2.05-3.385z"/><path d="m487.609 100.182c.65-.3772 1.124-.9961 1.315-1.7227.193-.7254.091-1.4984-.286-2.1474-1.863-3.2135-3.56-6.5209-5.083-9.9098-.665-1.3832-2.313-1.9833-3.713-1.3531s-2.043 2.2626-1.447 3.6783c1.602 3.5605 3.386 7.0384 5.347 10.416.785 1.3507 2.515 1.8107 3.867 1.0277z"/><path d="m494.705 105.643c-.943-1.189-2.655-1.425-3.884-.533-1.228.891-1.535 2.592-.695 3.857 2.291 3.16 4.742 6.202 7.341 9.114 1.042 1.166 2.832 1.268 3.998.227 1.167-1.043 1.268-2.832.227-3.998-2.473-2.77-4.806-5.663-6.987-8.667z"/><path d="m471.899 57.4987c.11.0013.22-.0062.329-.02.746-.0852 1.427-.4636 1.893-1.0524.468-.5888.682-1.338.595-2.0834-.429-3.6871-.672-7.3929-.728-11.1051-.04-1.5547-1.314-2.795-2.87-2.7913-.751.0101-1.467.3195-1.991.857-.523.5387-.811 1.2628-.801 2.0145.055 3.9013.307 7.7988.754 11.6751.165 1.432 1.379 2.5094 2.819 2.5056z"/><path d="m473.182 63.1611c-1.528.337-2.492 1.8479-2.155 3.3751.845 3.8149 1.885 7.5846 3.114 11.293.385 1.1588 1.467 1.9393 2.688 1.9393.303.0013.603-.0476.892-.144.712-.2356 1.303-.7455 1.64-1.417s.393-1.4482.157-2.1611c-1.17-3.5242-2.157-7.106-2.959-10.7304-.161-.7342-.609-1.3731-1.241-1.7778-.634-.4034-1.402-.54-2.136-.3771z"/><path d="m576.875 151.747c-2.124 1.415-4.276 2.746-6.512 3.991h-.057c-.595-.085-1.218-.141-1.813-.227-1.477-.277-2.48-1.66-2.285-3.15.196-1.491 1.522-2.569 3.022-2.455 1.812.227 3.624.396 5.492.538.889.052 1.694.54 2.153 1.303z"/><path d="m511.445 4.92018c-.169 1.8404-.311 3.65323-.425 5.52122-.074 1.4933-1.308 2.6647-2.802 2.661h-.171c-1.553-.0902-2.741-1.4182-2.661-2.9717.057-1.52972.198-3.08698.34-4.61543 1.84-.59509 3.737-1.13255 5.634-1.58607.086.32323.115.65898.085.99098z"/><path d="m540.771 99.3951c.733.6979 1.783.9519 2.754.6669.971-.2848 1.716-1.0666 1.954-2.0513.239-.9835-.065-2.0196-.798-2.7186-2.84-2.7099-5.532-5.5701-8.067-8.5668-.645-.7956-1.671-1.1802-2.681-1.0048-1.01.1741-1.847.882-2.187 1.8479-.34.9672-.132 2.0421.545 2.8114 2.663 3.1546 5.495 6.1638 8.48 9.0153z"/><path d="m571.268 120.295c3.736 1.752 7.564 3.302 11.466 4.64.296.103.605.155.918.155 1.384 0 2.565-1.001 2.792-2.365.228-1.366-.565-2.695-1.874-3.143-3.71-1.273-7.348-2.747-10.898-4.412-.92-.463-2.019-.39-2.87.191-.85.581-1.319 1.578-1.221 2.605.096 1.026.743 1.918 1.687 2.329z"/><path d="m560.371 114.44c1.333.781 3.046.35 3.85-.971.803-1.319.4-3.039-.905-3.865-3.352-2.041-6.59-4.259-9.702-6.647-1.243-.896-2.971-.643-3.903.572-.932 1.214-.73 2.95.456 3.918 3.274 2.512 6.68 4.846 10.204 6.993z"/><path d="m518.456 69.9002c1.93 3.6494 4.055 7.1937 6.367 10.6164.566.8381 1.537 1.3104 2.545 1.239 1.009-.0714 1.903-.6765 2.346-1.586.443-.9096.367-1.9858-.2-2.8239-2.197-3.2486-4.218-6.6149-6.051-10.0815-.472-.8957-1.387-1.4695-2.398-1.5071s-1.965.466-2.504 1.323c-.539.8569-.579 1.9356-.105 2.8314z"/><path d="m508.056 19.5294c-1.561.084-2.759 1.417-2.675 2.9792.218 4.1218.658 8.2286 1.316 12.304.163.9985.845 1.8354 1.791 2.1937.947.3596 2.012.1854 2.797-.4535.784-.6402 1.166-1.65 1.004-2.6485-.626-3.8737-1.046-7.7775-1.255-11.6963-.039-.7505-.374-1.4533-.933-1.9557s-1.294-.763-2.045-.7229z"/><path d="m509.337 46.9096c1.097 3.984 2.41 7.9041 3.935 11.744.427 1.0799 1.47 1.7903 2.632 1.7903.938-.0013 1.815-.4661 2.341-1.2416.528-.7767.636-1.7627.29-2.6347-1.447-3.6507-2.696-7.3753-3.74-11.1614-.433-1.4858-1.978-2.3478-3.47-1.9368-1.492.4109-2.378 1.9431-1.988 3.4402z"/><path d="m602.298 124.227c-.962 1.699-1.982 3.369-3.086 5.011-1.528-.254-3.029-.566-4.501-.906-1.015-.195-1.842-.928-2.159-1.91-.317-.984-.074-2.061.635-2.811.708-.752 1.769-1.058 2.769-.8 1.784.396 3.596.737 5.407 1.048.336.05.656.176.935.368z"/></g><path d="m588.342 47.8881c-6.373-7.9179-15.489-11.1577-20.361-7.2363-4.872 3.9226-3.656 13.5192 2.716 21.437 6.373 7.9179 15.489 11.1564 20.361 7.2351 4.872-3.9214 3.656-13.5192-2.716-21.4358z" fill="#e64c3c"/><path d="m551.159 20.935c-4.593-.9509-8.934 1.2566-9.694 4.9311-.762 3.6745 2.345 7.4255 6.939 8.3764 4.593.9509 8.934-1.2566 9.695-4.9311.761-3.6746-2.346-7.4255-6.94-8.3764z" fill="#e64c3c"/></g></g></svg>