<svg width="1440" height="175" viewBox="0 0 1440 175" fill="none" xmlns="http://www.w3.org/2000/svg">
<path d="M1.44025 174.5L104.674 93H1324.34L1438.44 174.5H1.44025Z" fill="#ECD8B3" stroke="black"/>
<path d="M104 27.0029C104 25.8984 104.895 25.0026 106 25.0021L109.829 25.0006C110.933 25.0002 111.829 25.8952 111.829 26.9998L111.856 150.667C111.856 151.771 110.961 152.667 109.856 152.668L106.027 152.669C104.923 152.669 104.027 151.774 104.027 150.67L104 27.0029Z" fill="white"/>
<path d="M117.864 14.0029C117.864 12.8984 118.759 12.0026 119.864 12.0021L123.693 12.0006C124.797 12.0002 125.693 12.8952 125.693 13.9998L125.72 137.667C125.72 138.771 124.825 139.667 123.72 139.668L119.891 139.669C118.787 139.669 117.891 138.774 117.891 137.67L117.864 14.0029Z" fill="white"/>
<path d="M131.728 4.00293C131.728 2.89836 132.623 2.00257 133.728 2.00213L137.557 2.00061C138.661 2.00017 139.557 2.89524 139.557 3.99981L139.584 127.667C139.584 128.771 138.689 129.667 137.584 129.668L133.755 129.669C132.651 129.669 131.755 128.774 131.755 127.67L131.728 4.00293Z" fill="white"/>
<path d="M119.406 13.4323L121.3 16.0365L117.784 18.5924L118.825 20.0247L109.971 26.4617L108.929 25.0293L105.934 27.2065L104.041 24.6023L107.036 22.4251L105.995 20.9927L114.849 14.5558L115.891 15.9881L119.406 13.4323Z" fill="#FFDD86"/>
<path d="M136.406 1.43227L138.3 4.03653L134.784 6.59238L135.825 8.02472L126.971 14.4617L125.929 13.0293L122.934 15.2065L121.041 12.6023L124.036 10.4251L122.995 8.99272L131.849 2.55577L132.891 3.98812L136.406 1.43227Z" fill="#FFDD86"/>
<path d="M1317 27.0029C1317 25.8984 1316.1 25.0026 1315 25.0021L1311.17 25.0006C1310.07 25.0002 1309.17 25.8952 1309.17 26.9998L1309.14 150.667C1309.14 151.771 1310.04 152.667 1311.14 152.668L1314.97 152.669C1316.08 152.669 1316.97 151.774 1316.97 150.67L1317 27.0029Z" fill="#F5F5F5"/>
<path d="M1303.14 14.0029C1303.14 12.8984 1302.24 12.0026 1301.14 12.0021L1297.31 12.0006C1296.2 12.0002 1295.31 12.8952 1295.31 13.9998L1295.28 137.667C1295.28 138.771 1296.18 139.667 1297.28 139.668L1301.11 139.669C1302.21 139.669 1303.11 138.774 1303.11 137.67L1303.14 14.0029Z" fill="#F5F5F5"/>
<path d="M1289.27 4.00293C1289.27 2.89836 1288.38 2.00257 1287.27 2.00213L1283.44 2.00061C1282.34 2.00017 1281.44 2.89524 1281.44 3.99981L1281.42 127.667C1281.42 128.771 1282.31 129.667 1283.42 129.668L1287.24 129.669C1288.35 129.669 1289.24 128.774 1289.25 127.67L1289.27 4.00293Z" fill="#F5F5F5"/>
<path d="M1301.59 13.4323L1299.7 16.0365L1303.22 18.5924L1302.17 20.0247L1311.03 26.4617L1312.07 25.0293L1315.07 27.2065L1316.96 24.6023L1313.96 22.4251L1315.01 20.9927L1306.15 14.5558L1305.11 15.9881L1301.59 13.4323Z" fill="#FFDD86"/>
<path d="M1284.59 1.43227L1282.7 4.03653L1286.22 6.59238L1285.17 8.02472L1294.03 14.4617L1295.07 13.0293L1298.07 15.2065L1299.96 12.6023L1296.96 10.4251L1298.01 8.99272L1289.15 2.55577L1288.11 3.98812L1284.59 1.43227Z" fill="#FFDD86"/>
</svg>
